<svg xmlns="http://www.w3.org/2000/svg">
    <symbol id="text" width="136" height="21" viewBox="0 0 136 21">
    <path d="M8.174 14.264C6.51667 14.264 5.072 13.9487 3.84 13.318C2.62267 12.6873 1.69133 11.8367 1.046 10.766C0.400667 9.68067 0.0780001 8.478 0.0780001 7.158C0.0780001 5.75 0.444667 4.50333 1.178 3.418C1.91133 2.33267 2.92333 1.49667 4.214 0.909999C5.50467 0.308666 6.94933 0.00799918 8.548 0.00799918C9.28133 0.00799918 9.99267 0.066666 10.682 0.184C11.386 0.301333 11.958 0.47 12.398 0.69C12.53 0.748666 12.6033 0.799999 12.618 0.843999C12.6473 0.887999 12.6693 1.00533 12.684 1.196L12.97 4.1C12.97 4.144 12.926 4.17333 12.838 4.188C12.7647 4.20267 12.7207 4.18067 12.706 4.122C12.398 3.198 11.8333 2.35467 11.012 1.592C10.1907 0.814666 9.13467 0.425999 7.844 0.425999C6.832 0.425999 5.908 0.682666 5.072 1.196C4.25067 1.70933 3.598 2.45 3.114 3.418C2.64467 4.37133 2.41 5.47867 2.41 6.74C2.41 8.07467 2.66667 9.292 3.18 10.392C3.708 11.4773 4.44867 12.3353 5.402 12.966C6.37 13.5967 7.47733 13.912 8.724 13.912C9.35467 13.912 9.846 13.8387 10.198 13.692C10.55 13.5453 10.8067 13.2813 10.968 12.9C11.1293 12.5187 11.21 11.9613 11.21 11.228C11.21 10.4653 11.166 9.93733 11.078 9.644C10.99 9.336 10.792 9.13067 10.484 9.028C10.1907 8.92533 9.67 8.874 8.922 8.874C8.834 8.874 8.79 8.81533 8.79 8.698C8.79 8.654 8.79733 8.61733 8.812 8.588C8.84133 8.544 8.87067 8.522 8.9 8.522C10.1173 8.59533 11.0927 8.632 11.826 8.632C12.5593 8.632 13.322 8.61 14.114 8.566C14.1433 8.566 14.1653 8.588 14.18 8.632C14.2093 8.66133 14.224 8.69067 14.224 8.72C14.224 8.82267 14.1873 8.874 14.114 8.874C13.8207 8.85933 13.6153 8.91067 13.498 9.028C13.3807 9.13067 13.3 9.35067 13.256 9.688C13.2267 10.0253 13.212 10.612 13.212 11.448C13.212 12.108 13.234 12.5773 13.278 12.856C13.3367 13.1347 13.366 13.3107 13.366 13.384C13.366 13.472 13.3513 13.5307 13.322 13.56C13.2927 13.5893 13.2267 13.6187 13.124 13.648C11.276 14.0587 9.626 14.264 8.174 14.264ZM23.2794 12.614C23.3087 12.614 23.3381 12.6433 23.3674 12.702C23.4114 12.7607 23.4187 12.8047 23.3894 12.834C22.8467 13.3327 22.3041 13.6993 21.7614 13.934C21.2187 14.154 20.6321 14.264 20.0014 14.264C19.1067 14.264 18.3294 14.066 17.6694 13.67C17.0241 13.274 16.5254 12.7533 16.1734 12.108C15.8361 11.4627 15.6674 10.766 15.6674 10.018C15.6674 9.15267 15.8801 8.36067 16.3054 7.642C16.7307 6.92333 17.3101 6.35867 18.0434 5.948C18.7914 5.52267 19.6201 5.31 20.5294 5.31C21.4094 5.31 22.0914 5.52267 22.5754 5.948C23.0594 6.37333 23.3014 7.004 23.3014 7.84C23.3014 8.26533 23.2134 8.478 23.0374 8.478L17.6694 8.5C17.6547 8.632 17.6474 8.83 17.6474 9.094C17.6474 10.3847 17.9407 11.4113 18.5274 12.174C19.1287 12.922 19.9794 13.296 21.0794 13.296C21.4901 13.296 21.8347 13.252 22.1134 13.164C22.3921 13.0613 22.7661 12.8853 23.2354 12.636L23.2794 12.614ZM19.7374 5.75C19.1947 5.75 18.7474 5.96267 18.3954 6.388C18.0581 6.79867 17.8307 7.37067 17.7134 8.104L21.2334 8.038C21.2041 6.51267 20.7054 5.75 19.7374 5.75ZM29.1134 14.286C28.2334 14.286 27.456 14.0807 26.7814 13.67C26.1067 13.2447 25.586 12.68 25.2194 11.976C24.8527 11.2573 24.6694 10.48 24.6694 9.644C24.6694 8.69067 24.904 7.884 25.3734 7.224C25.8574 6.54933 26.466 6.05067 27.1994 5.728C27.9474 5.39067 28.71 5.222 29.4874 5.222C30.382 5.222 31.1594 5.43467 31.8194 5.86C32.494 6.28533 33.0074 6.85 33.3594 7.554C33.7114 8.24333 33.8874 8.984 33.8874 9.776C33.8874 10.656 33.6674 11.4407 33.2274 12.13C32.802 12.8193 32.2227 13.3547 31.4894 13.736C30.756 14.1027 29.964 14.286 29.1134 14.286ZM29.7734 13.846C30.4187 13.846 30.91 13.56 31.2474 12.988C31.5994 12.416 31.7754 11.58 31.7754 10.48C31.7754 9.49733 31.636 8.63933 31.3574 7.906C31.0934 7.17267 30.7267 6.61533 30.2574 6.234C29.8027 5.85267 29.304 5.662 28.7614 5.662C28.1014 5.662 27.6027 5.93333 27.2654 6.476C26.928 7.01867 26.7594 7.818 26.7594 8.874C26.7594 9.82733 26.884 10.6853 27.1334 11.448C27.3974 12.196 27.7567 12.7827 28.2114 13.208C28.6807 13.6333 29.2014 13.846 29.7734 13.846ZM41.0446 5.288C41.3819 5.288 41.7046 5.398 42.0126 5.618C42.3206 5.838 42.4746 6.102 42.4746 6.41C42.4746 6.68867 42.3866 6.916 42.2106 7.092C42.0492 7.268 41.8219 7.356 41.5286 7.356C41.3379 7.356 41.1766 7.31933 41.0446 7.246C40.9272 7.158 40.8026 7.04067 40.6706 6.894C40.5386 6.762 40.4212 6.66667 40.3186 6.608C40.2159 6.53467 40.0912 6.498 39.9446 6.498C39.7832 6.498 39.6072 6.564 39.4166 6.696C39.2406 6.81333 38.9619 7.07 38.5806 7.466V12.218C38.5806 12.6287 38.6392 12.944 38.7566 13.164C38.8739 13.3693 39.0719 13.516 39.3506 13.604C39.6292 13.692 40.0399 13.736 40.5826 13.736C40.6412 13.736 40.6706 13.78 40.6706 13.868C40.6706 13.956 40.6412 14 40.5826 14C40.0986 14 39.7099 13.9927 39.4166 13.978L37.6786 13.956L36.4026 13.978C36.1972 13.9927 35.9112 14 35.5446 14C35.5006 14 35.4786 13.956 35.4786 13.868C35.4786 13.78 35.5006 13.736 35.5446 13.736C36.0432 13.736 36.3732 13.6333 36.5346 13.428C36.6959 13.2227 36.7766 12.8193 36.7766 12.218V8.016C36.7766 7.54667 36.7179 7.202 36.6006 6.982C36.4979 6.762 36.3219 6.652 36.0726 6.652C35.8526 6.652 35.4859 6.762 34.9726 6.982H34.9506C34.8919 6.982 34.8479 6.94533 34.8186 6.872C34.7892 6.79867 34.7966 6.75467 34.8406 6.74L37.7226 5.332C37.8106 5.30267 37.8619 5.288 37.8766 5.288C38.0232 5.288 38.1699 5.44933 38.3166 5.772C38.4632 6.08 38.5512 6.49067 38.5806 7.004C39.1526 6.35867 39.6292 5.91133 40.0106 5.662C40.3919 5.41267 40.7366 5.288 41.0446 5.288ZM48.1353 13.23C48.9713 13.2447 49.6533 13.2887 50.1813 13.362C50.7093 13.4353 51.1639 13.6407 51.5453 13.978C51.9413 14.3153 52.1393 14.8433 52.1393 15.562C52.1393 16.3687 51.8826 17.124 51.3693 17.828C50.8559 18.5467 50.1739 19.1187 49.3233 19.544C48.4726 19.9693 47.5633 20.182 46.5953 20.182C45.5833 20.182 44.7619 19.9547 44.1313 19.5C43.5153 19.0453 43.2073 18.4513 43.2073 17.718C43.2073 16.6767 43.9553 15.6573 45.4513 14.66C44.3659 14.4547 43.8233 13.934 43.8233 13.098C43.8233 12.6433 43.9479 12.2253 44.1973 11.844C44.4613 11.4627 44.8573 11.0887 45.3853 10.722C44.8426 10.4727 44.4173 10.1133 44.1093 9.644C43.8159 9.17467 43.6693 8.676 43.6693 8.148C43.6693 7.576 43.8453 7.07733 44.1973 6.652C44.5493 6.22667 45.0039 5.904 45.5613 5.684C46.1333 5.464 46.7419 5.354 47.3873 5.354C48.3259 5.354 49.1033 5.58867 49.7193 6.058C50.1153 5.80867 50.5039 5.62533 50.8853 5.508C51.2666 5.376 51.6773 5.31 52.1173 5.31C52.2199 5.31 52.2713 5.50067 52.2713 5.882C52.2713 6.08733 52.2419 6.3 52.1833 6.52C52.1393 6.74 52.0879 6.828 52.0293 6.784C51.4133 6.54933 50.8853 6.432 50.4453 6.432C50.3133 6.432 50.2179 6.43933 50.1593 6.454C50.5846 6.92333 50.7973 7.48067 50.7973 8.126C50.7973 8.68333 50.6213 9.18933 50.2693 9.644C49.9173 10.0987 49.4553 10.4507 48.8833 10.7C48.3113 10.9493 47.7026 11.074 47.0573 11.074C46.5733 11.074 46.1333 11.008 45.7373 10.876C45.4146 11.184 45.2533 11.5507 45.2533 11.976C45.2533 12.504 45.4659 12.8413 45.8913 12.988C46.3313 13.1347 47.0793 13.2153 48.1353 13.23ZM46.7273 5.75C45.9353 5.75 45.5393 6.344 45.5393 7.532C45.5393 8.148 45.6346 8.698 45.8253 9.182C46.0306 9.666 46.2873 10.04 46.5953 10.304C46.9179 10.568 47.2479 10.7 47.5853 10.7C47.9666 10.7 48.2819 10.5387 48.5313 10.216C48.7806 9.87867 48.9053 9.37267 48.9053 8.698C48.9053 8.082 48.7953 7.554 48.5753 7.114C48.3699 6.65933 48.0986 6.322 47.7613 6.102C47.4386 5.86733 47.0939 5.75 46.7273 5.75ZM47.7833 19.5C48.6193 19.5 49.2866 19.2507 49.7853 18.752C50.2986 18.268 50.5553 17.608 50.5553 16.772C50.5553 16.156 50.4159 15.7087 50.1373 15.43C49.8733 15.1513 49.5139 14.9753 49.0593 14.902C48.6193 14.8287 47.9886 14.792 47.1673 14.792C46.7566 14.792 46.3606 14.77 45.9793 14.726C45.2899 15.2247 44.9453 15.8847 44.9453 16.706C44.9453 17.586 45.2093 18.268 45.7373 18.752C46.2799 19.2507 46.9619 19.5 47.7833 19.5ZM60.5763 12.614C60.6056 12.614 60.6349 12.6433 60.6643 12.702C60.7083 12.7607 60.7156 12.8047 60.6863 12.834C60.1436 13.3327 59.6009 13.6993 59.0583 13.934C58.5156 14.154 57.9289 14.264 57.2983 14.264C56.4036 14.264 55.6263 14.066 54.9663 13.67C54.3209 13.274 53.8223 12.7533 53.4703 12.108C53.1329 11.4627 52.9643 10.766 52.9643 10.018C52.9643 9.15267 53.1769 8.36067 53.6023 7.642C54.0276 6.92333 54.6069 6.35867 55.3403 5.948C56.0883 5.52267 56.9169 5.31 57.8263 5.31C58.7063 5.31 59.3883 5.52267 59.8723 5.948C60.3563 6.37333 60.5983 7.004 60.5983 7.84C60.5983 8.26533 60.5103 8.478 60.3343 8.478L54.9663 8.5C54.9516 8.632 54.9443 8.83 54.9443 9.094C54.9443 10.3847 55.2376 11.4113 55.8243 12.174C56.4256 12.922 57.2763 13.296 58.3763 13.296C58.7869 13.296 59.1316 13.252 59.4103 13.164C59.6889 13.0613 60.0629 12.8853 60.5323 12.636L60.5763 12.614ZM57.0343 5.75C56.4916 5.75 56.0443 5.96267 55.6923 6.388C55.3549 6.79867 55.1276 7.37067 55.0103 8.104L58.5303 8.038C58.5009 6.51267 58.0023 5.75 57.0343 5.75ZM82.2994 0.25C82.3287 0.25 82.3434 0.294 82.3434 0.382C82.3434 0.469999 82.3287 0.513999 82.2994 0.513999C81.7127 0.513999 81.2581 0.726666 80.9354 1.152C80.6127 1.56267 80.4514 2.15667 80.4514 2.934V14.308C80.4514 14.352 80.4147 14.3813 80.3414 14.396C80.2681 14.4107 80.2167 14.4033 80.1874 14.374L69.8694 2.384V11.338C69.8694 12.1153 70.0234 12.7093 70.3314 13.12C70.6394 13.5307 71.0867 13.736 71.6734 13.736C71.7027 13.736 71.7174 13.78 71.7174 13.868C71.7174 13.956 71.7027 14 71.6734 14C71.2774 14 70.9767 13.9927 70.7714 13.978L69.6054 13.956L68.3074 13.978C68.0727 13.9927 67.7354 14 67.2954 14C67.2514 14 67.2294 13.956 67.2294 13.868C67.2294 13.78 67.2514 13.736 67.2954 13.736C67.9261 13.736 68.4101 13.5307 68.7474 13.12C69.0994 12.7093 69.2754 12.1153 69.2754 11.338V1.702C68.8647 1.262 68.4907 0.953999 68.1534 0.778C67.8307 0.601999 67.4934 0.513999 67.1414 0.513999C67.1121 0.513999 67.0974 0.469999 67.0974 0.382C67.0974 0.294 67.1121 0.25 67.1414 0.25L68.0214 0.272C68.2121 0.286666 68.4834 0.293999 68.8354 0.293999L70.2434 0.272C70.4194 0.257333 70.6321 0.25 70.8814 0.25C70.9987 0.25 71.0867 0.279333 71.1454 0.337999C71.2041 0.396666 71.2921 0.513999 71.4094 0.69L71.9374 1.394L79.8574 10.722V2.934C79.8574 2.15667 79.7034 1.56267 79.3954 1.152C79.0874 0.726666 78.6474 0.513999 78.0754 0.513999C78.0461 0.513999 78.0314 0.469999 78.0314 0.382C78.0314 0.294 78.0461 0.25 78.0754 0.25L78.9774 0.272C79.4467 0.301333 79.8354 0.315999 80.1434 0.315999C80.4367 0.315999 80.8327 0.301333 81.3314 0.272L82.2994 0.25ZM90.9767 12.614C91.006 12.614 91.0353 12.6433 91.0647 12.702C91.1087 12.7607 91.116 12.8047 91.0867 12.834C90.544 13.3327 90.0013 13.6993 89.4587 13.934C88.916 14.154 88.3293 14.264 87.6987 14.264C86.804 14.264 86.0267 14.066 85.3667 13.67C84.7213 13.274 84.2227 12.7533 83.8707 12.108C83.5333 11.4627 83.3647 10.766 83.3647 10.018C83.3647 9.15267 83.5773 8.36067 84.0027 7.642C84.428 6.92333 85.0073 6.35867 85.7407 5.948C86.4887 5.52267 87.3173 5.31 88.2267 5.31C89.1067 5.31 89.7887 5.52267 90.2727 5.948C90.7567 6.37333 90.9987 7.004 90.9987 7.84C90.9987 8.26533 90.9107 8.478 90.7347 8.478L85.3667 8.5C85.352 8.632 85.3447 8.83 85.3447 9.094C85.3447 10.3847 85.638 11.4113 86.2247 12.174C86.826 12.922 87.6767 13.296 88.7767 13.296C89.1873 13.296 89.532 13.252 89.8107 13.164C90.0893 13.0613 90.4633 12.8853 90.9327 12.636L90.9767 12.614ZM87.4347 5.75C86.892 5.75 86.4447 5.96267 86.0927 6.388C85.7553 6.79867 85.528 7.37067 85.4107 8.104L88.9307 8.038C88.9013 6.51267 88.4027 5.75 87.4347 5.75ZM106.906 5.508C106.95 5.508 106.972 5.552 106.972 5.64C106.972 5.728 106.95 5.772 106.906 5.772C106.51 5.772 106.158 5.91867 105.85 6.212C105.556 6.50533 105.27 6.97467 104.992 7.62L102.264 13.978C102.264 14.0367 102.19 14.066 102.044 14.066C101.882 14.066 101.794 14.0367 101.78 13.978L99.1835 8.698L96.9175 13.978C96.9175 14.0367 96.8442 14.066 96.6975 14.066C96.5655 14.066 96.4775 14.0367 96.4335 13.978L93.1775 7.334C92.8549 6.70333 92.5835 6.28533 92.3635 6.08C92.1435 5.87467 91.8795 5.772 91.5715 5.772C91.5275 5.772 91.5055 5.728 91.5055 5.64C91.5055 5.552 91.5275 5.508 91.5715 5.508C91.8355 5.508 92.0482 5.51533 92.2095 5.53L93.4855 5.552L94.9815 5.53C95.2015 5.51533 95.5022 5.508 95.8835 5.508C95.9275 5.508 95.9495 5.552 95.9495 5.64C95.9495 5.728 95.9275 5.772 95.8835 5.772C95.1062 5.772 94.7175 5.94067 94.7175 6.278C94.7175 6.366 94.7542 6.48333 94.8275 6.63L97.4235 11.58L98.8755 8.104L98.5015 7.334C98.1789 6.68867 97.9295 6.27067 97.7535 6.08C97.5775 5.87467 97.3502 5.772 97.0715 5.772C97.0422 5.772 97.0275 5.728 97.0275 5.64C97.0275 5.552 97.0422 5.508 97.0715 5.508C97.3209 5.508 97.5262 5.51533 97.6875 5.53L98.8315 5.552L100.35 5.53C100.57 5.51533 100.863 5.508 101.23 5.508C101.259 5.508 101.274 5.552 101.274 5.64C101.274 5.728 101.259 5.772 101.23 5.772C100.892 5.772 100.621 5.816 100.416 5.904C100.225 5.992 100.13 6.124 100.13 6.3C100.13 6.37333 100.166 6.48333 100.24 6.63L102.77 11.602L104.42 7.576C104.537 7.268 104.596 7.01867 104.596 6.828C104.596 6.49067 104.464 6.234 104.2 6.058C103.936 5.86733 103.562 5.772 103.078 5.772C103.034 5.772 103.012 5.728 103.012 5.64C103.012 5.552 103.034 5.508 103.078 5.508C103.474 5.508 103.767 5.51533 103.958 5.53L105.278 5.552L106.158 5.53C106.304 5.51533 106.554 5.508 106.906 5.508ZM113.763 12.592C113.807 12.592 113.843 12.6213 113.873 12.68C113.917 12.7387 113.917 12.7827 113.873 12.812C113.33 13.3253 112.817 13.6993 112.333 13.934C111.849 14.154 111.335 14.264 110.793 14.264C110.162 14.264 109.627 14.1173 109.187 13.824C108.761 13.516 108.549 13.01 108.549 12.306V7.334C108.549 6.85 108.468 6.52733 108.307 6.366C108.16 6.20467 107.867 6.124 107.427 6.124C107.412 6.124 107.39 6.10933 107.361 6.08C107.346 6.036 107.339 5.992 107.339 5.948C107.339 5.904 107.346 5.86733 107.361 5.838C107.39 5.794 107.412 5.772 107.427 5.772C108.805 5.71333 109.671 5.11933 110.023 3.99C110.052 3.93133 110.111 3.902 110.199 3.902C110.301 3.902 110.353 3.93133 110.353 3.99V5.728C111.042 5.71333 112.017 5.64 113.279 5.508C113.308 5.508 113.337 5.56667 113.367 5.684C113.411 5.78667 113.433 5.904 113.433 6.036C113.433 6.168 113.403 6.3 113.345 6.432C113.301 6.564 113.249 6.62267 113.191 6.608C112.369 6.41733 111.423 6.3 110.353 6.256V11.58C110.353 12.152 110.492 12.5773 110.771 12.856C111.064 13.12 111.467 13.252 111.981 13.252C112.597 13.252 113.176 13.0393 113.719 12.614L113.763 12.592ZM119.305 14.286C118.425 14.286 117.647 14.0807 116.973 13.67C116.298 13.2447 115.777 12.68 115.411 11.976C115.044 11.2573 114.861 10.48 114.861 9.644C114.861 8.69067 115.095 7.884 115.565 7.224C116.049 6.54933 116.657 6.05067 117.391 5.728C118.139 5.39067 118.901 5.222 119.679 5.222C120.573 5.222 121.351 5.43467 122.011 5.86C122.685 6.28533 123.199 6.85 123.551 7.554C123.903 8.24333 124.079 8.984 124.079 9.776C124.079 10.656 123.859 11.4407 123.419 12.13C122.993 12.8193 122.414 13.3547 121.681 13.736C120.947 14.1027 120.155 14.286 119.305 14.286ZM119.965 13.846C120.61 13.846 121.101 13.56 121.439 12.988C121.791 12.416 121.967 11.58 121.967 10.48C121.967 9.49733 121.827 8.63933 121.549 7.906C121.285 7.17267 120.918 6.61533 120.449 6.234C119.994 5.85267 119.495 5.662 118.953 5.662C118.293 5.662 117.794 5.93333 117.457 6.476C117.119 7.01867 116.951 7.818 116.951 8.874C116.951 9.82733 117.075 10.6853 117.325 11.448C117.589 12.196 117.948 12.7827 118.403 13.208C118.872 13.6333 119.393 13.846 119.965 13.846ZM135.922 13.736C135.966 13.736 135.988 13.78 135.988 13.868C135.988 13.956 135.966 14 135.922 14C135.555 14 135.269 13.9927 135.064 13.978L133.788 13.956L132.534 13.978C132.314 13.9927 132.021 14 131.654 14C131.61 14 131.588 13.956 131.588 13.868C131.588 13.78 131.61 13.736 131.654 13.736C132.153 13.736 132.483 13.6333 132.644 13.428C132.805 13.2227 132.886 12.8193 132.886 12.218V8.918C132.886 8.09667 132.732 7.49533 132.424 7.114C132.131 6.718 131.661 6.52 131.016 6.52C130.635 6.52 130.246 6.608 129.85 6.784C129.454 6.96 129.095 7.19467 128.772 7.488V12.218C128.772 12.8193 128.853 13.2227 129.014 13.428C129.175 13.6333 129.505 13.736 130.004 13.736C130.048 13.736 130.07 13.78 130.07 13.868C130.07 13.956 130.048 14 130.004 14C129.637 14 129.351 13.9927 129.146 13.978L127.87 13.956L126.594 13.978C126.389 13.9927 126.103 14 125.736 14C125.692 14 125.67 13.956 125.67 13.868C125.67 13.78 125.692 13.736 125.736 13.736C126.235 13.736 126.565 13.6333 126.726 13.428C126.887 13.2227 126.968 12.8193 126.968 12.218V8.016C126.968 7.54667 126.909 7.202 126.792 6.982C126.689 6.762 126.513 6.652 126.264 6.652C126.044 6.652 125.677 6.762 125.164 6.982H125.142C125.083 6.982 125.039 6.94533 125.01 6.872C124.981 6.79867 124.988 6.75467 125.032 6.74L127.914 5.332C128.002 5.30267 128.053 5.288 128.068 5.288C128.215 5.288 128.361 5.45667 128.508 5.794C128.669 6.11667 128.757 6.542 128.772 7.07C129.799 5.85267 130.913 5.244 132.116 5.244C132.923 5.244 133.553 5.49333 134.008 5.992C134.463 6.476 134.69 7.136 134.69 7.972V12.218C134.69 12.8193 134.771 13.2227 134.932 13.428C135.093 13.6333 135.423 13.736 135.922 13.736Z" fill="currentColor"/>
    </symbol>
</svg>        