<svg width="186" height="155" viewBox="0 0 186 155" fill="none" xmlns="http://www.w3.org/2000/svg"><g filter="url(#filter0_df_802_292)"><path d="M14.5644 58.2572C13.0643 72.7572 6.56436 94.7572 16.0644 93.7573C21.8576 93.1475 26.1918 78.3524 30.0644 87.7572C33.5644 96.2572 67.5644 121.257 67.5644 121.257C69.5644 126.757 83.5644 145.86 89.0644 142.757C93.4719 140.27 87.0644 129.257 83.5644 121.257C83.5644 121.257 107.192 123.207 119.064 116.257C139.564 104.257 159.064 113.757 170.564 116.257C182.064 118.757 167.564 98.2572 146.064 93.2572C152.064 86.2573 175.898 74.2572 174.064 68.7572C172.231 63.2572 154.684 66.4654 143.564 75.7573C130.465 86.7029 118.289 109.954 95.5644 99.2573C95.5644 99.2573 115.897 88.1243 107.563 86.2573C99.2288 84.3902 94.6582 84.473 86.5631 85.2573C80.9511 74.0196 77.7168 68.8999 68.5644 58.7573C68.5644 58.7573 75.5644 58.7573 80.0644 55.2573C83.3674 51.7433 70.0644 39.2572 57.0644 36.7572C46.5644 27.2572 28.4192 4.54495 18.5644 12.7572C9.5644 20.2572 15.5644 48.5906 14.5644 58.2572Z" fill="white" fill-opacity="0.11"/></g><defs><filter id="filter0_df_802_292" x="0" y="0" width="185.615" height="154.096" filterUnits="userSpaceOnUse" color-interpolation-filters="sRGB"><feFlood flood-opacity="0" result="BackgroundImageFix"/><feColorMatrix in="SourceAlpha" type="matrix" values="0 0 0 0 0 0 0 0 0 0 0 0 0 0 0 0 0 0 127 0" result="hardAlpha"/><feOffset/><feGaussianBlur stdDeviation="5.5"/><feColorMatrix type="matrix" values="0 0 0 0 1 0 0 0 0 1 0 0 0 0 1 0 0 0 0.2 0"/><feBlend mode="normal" in2="BackgroundImageFix" result="effect1_dropShadow_802_292"/><feBlend mode="normal" in="SourceGraphic" in2="effect1_dropShadow_802_292" result="shape"/><feGaussianBlur stdDeviation="1.5" result="effect2_foregroundBlur_802_292"/></filter></defs></svg>